# xmcd
#
# Track frame offsets:
#	150
#	12738
#	18165
#	32202
#	46236
#	63197
#	85936
#	101154
#	111854
#	127371
#	135420
#	148147
#	161258
#	175122
#	183369
#	193745
#	205592
#	216640
#	235201
#	249158
#	264593
#	277417
#	295195
#	308809
#	323723
#
# Disc length: 4697 seconds
#
# Revision: 0
# Processed by: cddbd v1.5.2PL0 Copyright (c) Steve Scherf et al.
# Submitted via: EasyCDDAExtractor 16.0.6.1
#
DISCID=78125719
DTITLE=Συλλογικός δίσκος - Λαϊκοί συνθέτες Α4-Ζαμπέτας Γιώργος
DYEAR=2010
DGENRE=Λαϊκή
TTITLE0=Πουλόπουλος Γιάννης - Αυτοί που μένουν κι αυτοί που φεύγουν [Α. Καγιαν
TTITLE0=τάς]
TTITLE1=Μοσχολιού Βίκυ - Πάει, πάει [Χ. Βασιλειάδης]
TTITLE2=Μοσχολιού Βίκυ - Τι να φταίει [Δ. Χριστοδούλου]
TTITLE3=Μητσιάς Μανώλης - Θεσσαλονίκη [Η. Ηλιόπουλος]
TTITLE4=Γλυκερία - Όταν θα λάβεις αυτό το γράμμα [Γ. Μητσάκης]
TTITLE5=Οπισθοδρομικοί - Χίλια περιστέρια [Ι. Κλειάσιου]
TTITLE6=Αστεριάδη Πόπη - Δημήτρη μου, Δημήτρη μου [Α. Σακελλάριος]
TTITLE7=Βουγιουκλάκη Αλίκη - Αγάπη μου, αγάπη μου [Δ. Χριστοδούλου]
TTITLE8=Πουλόπουλος Γιάννης - Η Μαρίνα η Σαλονικιά
TTITLE9=Μοσχολιού Βίκυ - Τα δειλινά [Χ. Βασιλειάδης]
TTITLE10=Μοσχολιού Βίκυ - Χωρισμός [Δ. Χριστοδούλου]
TTITLE11=Μακεδόνας Κώστας - Κυρ Αλέκο [Χ. Βασιλειάδης]
TTITLE12=Μακεδόνας Κώστας - Στον Λευκό τον Πύργο [Ξ. Φιλέρης]
TTITLE13=Δημητριάδης Μιχάλης - Ο μαθητής [Χ. Βασιλειάδης]
TTITLE14=Μοσχολιού Βίκυ - Ξημερώματα [Δ. Χριστοδούλου]
TTITLE15=Μητσιάς Μανώλης - Ναυτάκι Συριανό [Σ. Γεράνης]
TTITLE16=Γλυκερία - Τι γλυκό να σ' αγαπούν [Λ. Παπαδόπουλος]
TTITLE17=Κοντογιάννης Γιώργος - Ο πενηντάρης [Ν. Ελευθερίου]
TTITLE18=Μοσχολιού Βίκυ - Αλήτη [Α. Καγιάντας]
TTITLE19=Apurimac - Ο Αράπης [Χ. Βασιλειάδης]
TTITLE20=Σακάτος Σταύρος - Το θέμα είναι να τη βρω [Φ. Φιλέρης]
TTITLE21=Μοσχολιού Βίκυ - Ο Τζακ [Α. Αθάνας]
TTITLE22=Πουλόπουλος Γιάννης - Τι έχεις και δακρύζεις [Δ. Τζεφρώνης]
TTITLE23=Κλάδη Ελένη-χορωδία - Σήκω, χόρεψε συρτάκι [Α. Σακελλάριος]
TTITLE24=Ζαμπέτας Γιώργος-χορωδία - Αυτοσχεδιασμός-Ο μαθητής [Χ. Βασιλειάδης]
EXTD=
EXTT0=
EXTT1=
EXTT2=
EXTT3=
EXTT4=
EXTT5=
EXTT6=
EXTT7=
EXTT8=
EXTT9=
EXTT10=
EXTT11=
EXTT12=
EXTT13=
EXTT14=
EXTT15=
EXTT16=
EXTT17=
EXTT18=
EXTT19=
EXTT20=
EXTT21=
EXTT22=
EXTT23=
EXTT24=
PLAYORDER=
